<?xml version="1.0" encoding="UTF-8" standalone="no"?>
<!DOCTYPE svg PUBLIC "-//W3C//DTD SVG 1.1//EN" "http://www.w3.org/Graphics/SVG/1.1/DTD/svg11.dtd">
<svg width="100%" height="100%" viewBox="0 0 845 875" version="1.1" xmlns="http://www.w3.org/2000/svg" xmlns:xlink="http://www.w3.org/1999/xlink" xml:space="preserve" xmlns:serif="http://www.serif.com/" style="fill-rule:evenodd;clip-rule:evenodd;stroke-linejoin:round;stroke-miterlimit:2;">
    <g transform="matrix(1,0,0,1,-267,-803)">
        <g id="hand" transform="matrix(1.01719,0,0,1.01719,-7.98447,-24.269)">
            <g transform="matrix(1,0,0,1,-210.994,55.7931)">
                <path d="M841.999,1413.94C880.073,1375.23 979.07,1323.72 1014.8,1321.38C1030.11,1320.38 1055.46,1340.17 1025.64,1372.24C1018.36,1380.06 995.048,1396.68 985.73,1401.67C947.575,1422.14 957.687,1417.32 912.854,1433.85" style="fill:white;"/>
            </g>
            <g transform="matrix(1,0,0,1,-210.994,55.7931)">
                <path d="M841.999,1413.94C860.563,1396.59 892.644,1377.25 925.024,1361.05C940.343,1353.38 955.703,1346.47 969.751,1340.86C988.446,1333.39 1004.68,1328.22 1015.22,1327.67C1022.2,1327.14 1032.05,1332.43 1033.43,1342.23C1034.42,1349.25 1031.4,1358.08 1021.93,1368.79C1018.54,1372.66 1011.36,1378.74 1003.94,1384.54C996.375,1390.44 988.609,1396.07 984.128,1398.69C964.328,1410.37 957.906,1414.34 949.559,1418.28C942.213,1421.76 933.446,1425.21 912.854,1433.85C934.205,1427.03 943.284,1424.37 950.926,1421.52C959.661,1418.27 966.444,1414.79 987.331,1404.66C992.184,1402.28 1000.72,1397.09 1008.99,1391.48C1017.39,1385.78 1025.45,1379.63 1029.35,1375.69C1042.58,1362.15 1046.18,1350.12 1045.2,1340.79C1043.42,1323.85 1026.42,1314.43 1014.39,1315.09C1002.97,1316 985.276,1321.5 965.342,1330.48C951.276,1336.81 936.048,1344.81 921.025,1353.72C889.6,1372.37 859.197,1394.92 841.999,1413.94Z" style="fill:rgb(140,151,92);"/>
            </g>
            <g transform="matrix(1,0,0,1,-118.615,26.8453)">
                <path d="M841.999,1413.94C861.264,1397.35 894.019,1379.67 926.959,1364.59C942.425,1357.51 957.823,1351.16 971.885,1345.88C989.956,1339.09 1005.5,1334.15 1015.62,1333.76C1020.16,1333.36 1026.73,1336.56 1027.74,1342.93C1028.67,1348.84 1026.11,1356.23 1018.34,1365.45C1015.75,1368.59 1010.76,1373.26 1005.19,1378.05C996.914,1385.18 987.642,1392.61 982.578,1395.8C963.25,1408.26 957.077,1412.43 948.898,1416.71C941.673,1420.5 933.136,1424.31 912.854,1433.85C934.634,1427.9 943.778,1425.64 951.588,1423.09C960.532,1420.17 967.411,1416.94 988.882,1407.55C993.929,1405.29 1002.79,1400.3 1011.44,1394.84C1020.34,1389.22 1028.77,1382.99 1032.94,1379.03C1053.23,1359.18 1053.37,1341.51 1048.14,1329.7C1041.91,1315.62 1025.83,1308.42 1013.99,1309.01C1002.14,1310.1 983.716,1315.7 963.209,1325.45C949.111,1332.15 933.97,1340.64 919.089,1350.18C888.036,1370.09 858.566,1394.05 841.999,1413.94Z" style="fill:rgb(140,151,92);"/>
            </g>
            <g transform="matrix(1,0,0,1,-118.615,26.8453)">
                <path d="M841.999,1413.94C880.073,1375.23 979.07,1323.72 1014.8,1321.38C1030.11,1320.38 1055.46,1340.17 1025.64,1372.24C1018.36,1380.06 995.048,1396.68 985.73,1401.67C947.575,1422.14 957.687,1417.32 912.854,1433.85" style="fill:white;"/>
            </g>
            <g transform="matrix(1,0,0,1,-118.615,26.8453)">
                <path d="M891.633,1425.62C966.991,1389.41 1041.16,1328.76 1120.79,1302.39C1133.23,1298.27 1191.07,1275.25 1204.44,1299.62C1217.37,1323.21 1175.19,1355.11 1161.04,1363.72C1099.78,1401.01 1022.8,1422.99 958.929,1455.89" style="fill:white;"/>
            </g>
            <g transform="matrix(1,0,0,1,-118.615,26.8453)">
                <path d="M891.633,1425.62C945.319,1402.99 999.055,1369.09 1053.79,1342.16C1077.12,1330.68 1100.5,1320.33 1124.39,1313.24C1131.46,1311.03 1153.96,1302.73 1173.56,1301.2C1178.52,1300.82 1183.26,1300.84 1187.34,1301.81C1189.98,1302.44 1192.4,1303.29 1193.65,1305.54C1195.36,1308.55 1194.79,1311.86 1193.48,1315.21C1191.59,1320.04 1188.33,1324.91 1184.48,1329.49C1174.88,1340.89 1162.14,1350.76 1155.69,1354.94C1137.85,1366.77 1118.53,1377.16 1098.61,1387.13C1052.03,1410.43 1002.31,1430.76 958.929,1455.89C1004.64,1435.14 1056.38,1420.33 1104.88,1401.2C1126.35,1392.73 1147.02,1383.29 1166.38,1372.5C1177.23,1366.31 1202.59,1348.27 1213.29,1329.15C1219.95,1317.24 1221.12,1304.87 1215.22,1293.71C1209.05,1282.36 1196.9,1276.67 1181.81,1276.25C1158.04,1275.59 1126.26,1288.38 1117.2,1291.53C1092.67,1300.53 1068.64,1312.44 1045.23,1326.41C992.71,1357.75 942.978,1397.77 891.633,1425.62Z" style="fill:rgb(140,151,92);"/>
            </g>
            <g transform="matrix(1,0,0,1,-118.615,26.8453)">
                <path d="M644.787,1534.26C708.695,1518.6 787.327,1510.82 852.647,1523.82C888.119,1530.88 964.468,1569.8 998.681,1546.17C1033.49,1522.14 1014.76,1476.34 974.699,1452.95C954.487,1441.14 926.368,1429.39 903.729,1424.7C811.355,1405.59 769.839,1412.1 748.305,1401.21C651.292,1352.13 477.26,1356 389.059,1392.93" style="fill:white;"/>
            </g>
            <g transform="matrix(1,0,0,1,-118.615,26.8453)">
                <path d="M389.059,1482.47C480.244,1518.91 576.311,1547.87 660.842,1610.67C702.95,1641.96 758.116,1642.96 812.938,1637.68C860.963,1633.05 906.352,1605.32 942.13,1576.72C998.575,1531.6 1055.05,1486.97 1112.83,1443.56C1139.47,1423.54 1197.04,1385.39 1204.01,1353.27C1207.17,1338.7 1193.05,1317.43 1161.04,1322.02C1121.52,1327.67 1083.68,1347.92 1052.93,1371.77C1018.99,1398.09 992.417,1431.5 955.864,1454.77" style="fill:white;"/>
            </g>
            <g transform="matrix(1,0,0,1,-118.615,26.8453)">
                <path d="M644.787,1534.26C677.011,1527.86 712.726,1523.79 748.549,1522.91C783.853,1522.05 819.141,1524.36 851.049,1531.84C875.049,1537.11 917.455,1557.43 953.295,1562.79C973.418,1565.79 991.622,1563.86 1004.75,1554.97C1023.85,1541.8 1030.11,1523.37 1026.95,1504.4C1023.27,1482.25 1005.61,1458.9 979.868,1444.1C969.341,1438.12 956.788,1432.15 943.916,1427.13C930.871,1422.04 917.516,1417.88 905.62,1415.57C830.76,1401.23 789.3,1403.06 764.637,1398.79C759.468,1397.9 755.122,1396.78 751.444,1395C702.854,1371.52 635.853,1360.99 569.632,1361.25C501.274,1361.51 433.872,1373.12 389.059,1392.93C434.313,1375.02 501.658,1366.17 569.523,1368.48C633.913,1370.67 698.754,1382.86 745.166,1407.41C749.823,1409.87 755.328,1411.62 761.948,1412.99C786.367,1418.02 827.72,1417.35 901.837,1433.84C912.66,1436.22 924.766,1440.34 936.579,1445.28C948.399,1450.23 959.906,1456.02 969.531,1461.8C985.616,1471.35 997.813,1484.92 1003.3,1498.91C1008.84,1513.01 1006.75,1527.61 992.607,1537.38C983.41,1543.85 970.365,1544.15 956.037,1542.43C920.598,1538.17 878.069,1520.05 854.244,1515.79C820.83,1510.31 784.257,1509.93 747.961,1513.66C712.031,1517.35 676.571,1524.96 644.787,1534.26Z" style="fill:rgb(140,151,92);"/>
            </g>
            <g transform="matrix(0.998492,-0.0548918,0.0613072,1.11519,-175.014,-29.2946)">
                <path d="M681.387,1084.79C665.71,1076.3 646.934,1065.54 630.326,1053.04C619.756,1045.09 610.303,1036.48 603.507,1027.13C591.186,1011.13 586.161,993.882 583.809,976.091C582.681,967.555 582.228,958.889 582.084,950.097C581.939,941.246 582.074,932.299 582.313,923.279C583.058,895.037 584.907,866.457 581.433,839.627C580.241,831.756 578.304,824.329 575.678,817.055C571.788,806.28 566.677,796.103 561.285,785.651C564.486,796.645 567.421,807.332 569.16,818.399C570.278,825.513 570.822,832.661 570.546,840.123C570.118,862.872 564.72,886.261 561.159,909.927C558.71,926.204 556.871,942.529 557.525,958.465C558.109,972.711 560.761,986.636 565.921,999.846C571.023,1012.91 578.686,1025.22 589.653,1036.64C598.887,1045.87 610.725,1054.12 623.933,1061.12C642.93,1071.18 663.991,1078.79 681.387,1084.79Z" style="fill:rgb(140,151,92);"/>
            </g>
            <g transform="matrix(1.10752,0,0,1.10752,-179.192,-57.7182)">
                <path d="M687.805,1087.4C693.265,1080.26 697.818,1073.34 701.736,1065.95C705.692,1058.5 708.845,1050.7 711.61,1041.96C718.186,1020.39 719.544,1001.56 717.123,984.51C715.177,970.806 710.652,958.381 704.451,946.863C697.352,933.678 688.01,921.633 677.192,910.577C667.173,900.339 655.862,890.995 644.42,881.67C627.96,868.254 611.131,855.223 596.713,839.917C582.404,824.727 570.361,807.868 563.424,786.512C566.775,809.529 575.905,829.029 588.21,846.802C600.583,864.674 615.908,880.55 631.459,896.045C641.557,906.106 651.598,916.027 661.117,926.063C670.568,936.027 679.457,946.065 686.579,957.292C695.322,971.076 701.728,986.256 703.678,1004.75C704.807,1015.46 704.856,1027.06 702.976,1040.01C701.774,1048.68 700.006,1056.5 697.523,1064.17C694.986,1072.01 691.832,1079.52 687.805,1087.4Z" style="fill:rgb(140,151,92);"/>
            </g>
            <g transform="matrix(1,0,0,1,-118.615,26.8453)">
                <path d="M780.474,1202.38C777.859,1192.2 775.862,1181.84 774.446,1171.32C773.043,1160.89 772.263,1150.45 772.128,1140.03C771.457,1109.39 781.64,1084.33 798.649,1064.36C815.32,1044.8 838.827,1030.43 866.287,1021.71C878.972,1017.26 891.573,1013.99 903.99,1011.01C917.074,1007.86 929.991,1005.21 942.848,1002.8C983.411,995.218 1023.2,990.471 1062.86,977.99C1089.31,969.665 1115.38,957.736 1141.58,939.316C1113.77,953.98 1086.85,962.059 1060.12,967.208C1040.08,971.069 1020.29,973.089 1000.39,974.826C980.157,976.593 959.935,977.943 939.474,980.342C925.884,981.936 912.209,983.952 898.46,986.978C885.088,989.921 871.703,993.951 858.149,998.848C827.408,1011 801.219,1029.06 784.209,1053.15C767.244,1077.17 759.082,1106.64 763.699,1140.69C765.23,1151.26 767.388,1161.77 770.23,1172.17C773.052,1182.49 776.477,1192.57 780.474,1202.38Z" style="fill:rgb(140,151,92);"/>
            </g>
            <g transform="matrix(1,0,0,1,-118.615,26.8453)">
                <path d="M788.359,1217.34C830.89,1270.71 878.393,1282.13 923.416,1268.08C950.679,1259.57 977.158,1241.38 1000.89,1216.64C1014.46,1202.48 1026.8,1185.87 1038.35,1168.09C1047.65,1152.7 1053.6,1138.43 1057.57,1124.41C1066.82,1091.79 1065.73,1061.51 1083.18,1024.14C1090.48,1007.92 1099.86,988.806 1111.59,972.626C1119.78,961.32 1128.99,951.506 1139.5,945.181C1128.02,950.214 1117.37,958.94 1107.63,969.37C1093.62,984.382 1081.77,1002.79 1072.33,1018.45C1051.13,1054.71 1048.57,1085.22 1036.72,1117.65C1032.34,1129.62 1026.67,1141.88 1017.8,1154.86C1011.43,1164.67 1004.63,1173.94 997.762,1182.82C986.863,1196.89 975.482,1209.7 963.515,1220.66C940.977,1241.29 916.778,1255.48 890.937,1259.07C858.146,1263.63 823.599,1252.02 788.359,1217.34Z" style="fill:rgb(140,151,92);"/>
            </g>
            <g transform="matrix(1,0,0,1,-118.615,26.8453)">
                <path d="M750.4,1387.82C750.266,1356.32 754.599,1326.22 762.27,1297.48C764.328,1289.76 766.608,1282.23 769.073,1274.76C772.774,1263.54 777.239,1252.75 782.067,1242.16C785.289,1235.09 788.586,1228.09 792.243,1221.25C797.75,1210.95 803.767,1201 810.77,1191.45C827.775,1168.27 849.161,1147.62 877.571,1131.06C858.623,1137.3 841.797,1145.22 826.592,1155.08C815.559,1162.23 805.707,1170.32 796.683,1179.19C787.333,1188.39 779.103,1198.39 771.99,1209.19C767.222,1216.43 763.045,1224.05 759.451,1231.96C756.774,1237.85 754.46,1243.91 752.506,1250.12C748.044,1264.29 744.946,1279 743.498,1294.14C740.58,1324.67 743.632,1356.06 750.4,1387.82Z" style="fill:rgb(140,151,92);"/>
            </g>
            <g transform="matrix(1,0,0,1,-118.615,26.8453)">
                <path d="M749.62,1401.21C751.797,1372.91 752.71,1344.23 751.61,1315.08C750.885,1295.89 749.324,1276.74 746.944,1257.58C745.458,1245.62 743.639,1233.72 741.36,1221.9C739.074,1210.05 736.47,1198.26 733.245,1186.7C726.697,1163.23 718.121,1140.63 709.251,1118.57C704.418,1107.31 699.248,1096.31 693.603,1085.47C680.585,1060.45 666.038,1036.55 653.289,1011.39C661.777,1038.24 671.844,1064.26 681.019,1090.88C684.885,1102.09 688.613,1113.27 691.814,1124.72C696.583,1140.78 700.564,1157.2 704.692,1173.78C707.399,1184.65 710.042,1195.59 712.758,1206.55C716.135,1220.17 719.595,1233.81 722.8,1247.55C726.012,1261.31 729.09,1275.05 732.009,1288.87C739.974,1326.55 746.446,1364.01 749.62,1401.21Z" style="fill:rgb(140,151,92);"/>
            </g>
            <g transform="matrix(1,0,0,1,-118.615,26.8453)">
                <path d="M389.059,1482.47C444.082,1505.39 500.918,1525.58 555.82,1552.21C591.135,1569.34 625.635,1589.13 658.298,1614.1C675.981,1627.6 696.01,1635.85 717.402,1640.57C747.643,1647.24 780.638,1646.76 813.55,1644.03C833.395,1642.37 852.85,1636.9 871.446,1629.08C899.188,1617.41 924.974,1600.42 947.211,1583.08C975.649,1560.83 1004.11,1538.74 1032.7,1516.8C1061.25,1494.88 1089.93,1473.13 1118.95,1451.7C1137.24,1438.11 1169.74,1416.21 1191.34,1393.4C1203.27,1380.8 1211.85,1367.68 1214.52,1355.55C1216.71,1345.22 1213.38,1332.38 1203.38,1323.06C1194.42,1314.69 1179.91,1308.79 1159.6,1311.98C1139.03,1315.43 1118.9,1322.44 1100.11,1332.12C1081.55,1341.68 1064.31,1353.7 1048.89,1366.55C1025.84,1386.28 1006.55,1409.11 984.948,1429.93C975.805,1438.74 966.357,1447.18 955.864,1454.77C967.265,1448.42 977.802,1441.19 987.914,1433.36C1011.4,1415.16 1032.38,1394.22 1056.98,1376.98C1072.4,1365.87 1089.56,1355.86 1107.64,1347.85C1125.2,1340.07 1143.65,1334.29 1162.48,1332.05C1172.42,1330.77 1180.1,1332.49 1185.53,1335.96C1191.6,1339.83 1194.62,1345.95 1193.49,1350.99C1190.95,1362.87 1180.01,1375.33 1167.07,1387.55C1147.12,1406.39 1121.83,1423.92 1106.71,1435.41C1083.69,1452.99 1060.87,1470.73 1038.22,1488.68C1004.27,1515.59 970.67,1542.91 937.048,1570.36C919.604,1584.65 899.797,1598.77 878.427,1609.9C857.607,1620.75 835.329,1628.82 812.326,1631.33C780.642,1634.81 748.82,1636.22 719.471,1630.56C699.297,1626.67 680.302,1619.47 663.385,1607.25C629.656,1582.9 594.236,1563.8 558.032,1547.48C502.312,1522.37 444.81,1503.82 389.059,1482.47Z" style="fill:rgb(140,151,92);"/>
            </g>
        </g>
    </g>
</svg>
