<?xml version="1.0" encoding="UTF-8" standalone="no"?>
<!DOCTYPE svg PUBLIC "-//W3C//DTD SVG 1.1//EN" "http://www.w3.org/Graphics/SVG/1.1/DTD/svg11.dtd">
<svg width="100%" height="100%" viewBox="0 0 420 175" version="1.1" xmlns="http://www.w3.org/2000/svg" xmlns:xlink="http://www.w3.org/1999/xlink" xml:space="preserve" xmlns:serif="http://www.serif.com/" style="fill-rule:evenodd;clip-rule:evenodd;stroke-linejoin:round;stroke-miterlimit:2;">
    <g transform="matrix(1,0,0,1,-3791,-18)">
        <g transform="matrix(0.579615,0,0,0.823626,1544.99,0)">
            <g id="Logo-jedna-linia" serif:id="Logo jedna linia" transform="matrix(0.0261129,0,0,0.0183766,4183.96,318.749)">
                <g id="sygnet" transform="matrix(9.88035,0,0,9.88035,-16194.4,-17778.8)">
                    <g transform="matrix(1,0,0,1,-14.8358,-16.3026)">
                        <path d="M1030.74,649.881C1035.08,648.721 1038.02,647.149 1039.92,645.389C1043.26,642.304 1044.25,638.554 1043.76,634.43C1043.29,630.417 1041.19,625.937 1038.98,621.622C1037.44,618.613 1035.86,615.698 1035.18,613.127C1034.95,612.277 1034.74,611.511 1035.03,610.863C1035.25,610.376 1035.8,610.129 1036.55,609.838C1040.73,608.2 1047.51,605.399 1052.64,600.94C1056.2,597.848 1058.97,593.985 1060.01,589.3C1061.58,582.211 1059.24,572.717 1047.41,560.72C1036.51,549.685 1023.57,535.66 1016.79,511.46C1010.99,490.744 1009.63,462.693 1017.65,422.906C1020.35,408.765 1021.14,396.223 1020.36,385.11C1019.33,370.551 1015.73,358.452 1010.71,348.433C1002.78,332.601 991.338,321.975 980.706,315.03C966.293,305.615 953.491,303.004 953.491,303.004C953.491,303.004 965.935,306.437 979.621,316.588C989.451,323.878 999.911,334.66 1006.77,350.284C1011.04,360.006 1013.85,371.6 1014.3,385.423C1014.65,396.067 1013.62,408.025 1010.65,421.461C1001.91,462.781 1003.15,492.004 1009.05,513.601C1016.14,539.55 1029.9,554.654 1041.53,566.506C1050.38,575.517 1053.09,582.184 1051.9,587.496C1051.07,591.223 1048.31,593.983 1045.26,596.165C1041.22,599.042 1036.55,600.897 1033.51,602.089C1030.38,603.316 1028.58,605.125 1027.58,607.143C1026.56,609.211 1026.35,611.632 1026.91,614.318C1027.38,616.569 1028.42,619.08 1029.7,621.695C1031.38,625.14 1033.51,628.821 1034.74,632.326C1035.65,634.942 1036.28,637.446 1034.28,639.298C1033.11,640.39 1031.29,641.229 1028.75,641.928C1024.61,643.062 1018.82,643.683 1010.9,643.699C1009.41,643.702 1008.6,643.972 1008.34,644.082C1006.65,644.793 1006.13,646.013 1005.91,646.877C1005.69,647.729 1005.29,650.583 1008.56,651.842C1008.93,651.986 1009.83,652.227 1011.13,652.518C1014.49,653.268 1021.37,654.716 1027.3,657.289C1030.52,658.686 1033.5,660.332 1035.06,662.592C1036.14,664.164 1036.07,666.053 1034.61,668.347C1033.31,670.4 1031.14,672.623 1027.96,675.1C1022.27,679.544 1019.89,685.593 1019.33,692.052C1018.53,701.258 1021.7,711.309 1022.34,717.087C1022.77,720.824 1023.77,728.01 1022.53,735.7C1021.65,741.146 1019.68,746.874 1015.37,751.726C1009.31,758.554 998.914,763.622 981.378,764.296C969.746,764.818 956.394,759.714 942.029,760.145C936.57,760.308 930.98,761.255 925.283,763.59C931.062,761.699 936.633,761.166 942.022,761.388C956.538,761.985 969.651,768.015 981.419,768.305C1001,768.663 1012.81,763.261 1019.94,755.985C1025.45,750.36 1028.2,743.512 1029.49,736.942C1031.15,728.464 1030.25,720.456 1029.87,716.3C1029.33,710.865 1026.3,701.408 1027.13,692.766C1027.55,688.453 1029.02,684.345 1032.85,681.408C1045.55,671.633 1045.57,663.632 1041.74,658.015C1039.49,654.708 1035.41,651.954 1030.74,649.881Z" style="fill:white;"/>
                    </g>
                    <g transform="matrix(0.921013,0.109603,-0.109603,0.921013,118.724,-67.8113)">
                        <path d="M955.74,433.422C960.757,430.925 966.02,429.186 971.61,427.61C973.37,427.114 975.099,426.693 976.855,426.221C978.576,425.757 980.277,425.279 981.994,424.886C984.856,424.23 987.722,423.801 990.561,423.572C993.407,423.343 996.223,423.311 998.971,423.652C1001.49,423.959 1003.79,422.162 1004.1,419.64C1004.4,417.119 1002.61,414.823 1000.08,414.516C996.679,414.109 993.18,414.041 989.669,414.458C984.744,415.042 979.726,416.261 975.012,418.38C972.731,419.405 970.567,420.609 968.483,422.023C963.618,425.322 959.531,429.204 955.74,433.422Z" style="fill:white;"/>
                    </g>
                    <g transform="matrix(1.00152,0,0,1.00152,-10.3919,0.5349)">
                        <path d="M935.901,463.348C942.654,469.569 949.932,474.792 957.693,478.451C960.52,479.784 963.371,480.847 966.272,481.645C969.339,482.489 972.434,482.93 975.487,483.144C980.933,483.525 986.281,482.945 991.349,481.343C996.373,479.755 1001.09,477.073 1005.43,473.334C1007.46,471.575 1007.68,468.496 1005.92,466.464C1004.17,464.432 1001.09,464.21 999.054,465.969C995.744,468.847 992.112,470.83 988.301,472.155C984.312,473.542 980.124,474.214 975.787,474.226C973.184,474.234 970.551,474.026 967.868,473.683C965.2,473.342 962.523,472.942 959.796,472.329C951.737,470.516 943.677,467.554 935.901,463.348Z" style="fill:white;"/>
                    </g>
                    <g transform="matrix(2.78047,0,0,2.78047,-1640.07,-492.793)">
                        <path d="M871.109,299.237C861.796,306.167 852.53,314.424 834.514,313.95C808.606,313.27 800.845,317.04 791.679,324.764C772.262,341.127 768.851,357.244 776.753,372.358C812.696,359.615 846.538,339.691 871.109,299.237Z" style="fill:rgb(140,151,92);"/>
                    </g>
                    <path d="M541.618,986.757C448.234,855.303 441.341,725.966 544.614,599.323C544.614,599.323 330.808,782.416 541.618,986.757Z" style="fill:rgb(44,86,51);"/>
                    <g transform="matrix(2.78047,0,0,2.78047,-1640.07,-492.793)">
                        <path d="M782.374,365.398C788.053,354.275 794.507,346.453 802.352,344.55L803.559,353.633C805.013,343.429 810.942,337.805 818.396,333.741C817.932,337.905 818.254,341.056 819.672,342.798C820.337,336.696 822.377,331.854 826.579,328.995C847.001,318.312 858.081,311.124 859.196,307.663C853.257,311.295 846.591,314.833 834.017,317.603C826.262,316.585 819.869,317.187 813.913,318.306C818.635,318.479 823.044,318.82 826.725,320.141C818.513,327.293 806.11,329.763 794.488,333.105C802.92,331.521 809.335,330.744 813.913,330.704C792.248,343.112 786.423,354.322 782.374,365.398Z" style="fill:rgb(44,86,51);"/>
                    </g>
                    <g transform="matrix(2.78047,0,0,2.78047,-1640.07,-492.793)">
                        <path d="M823.296,405.122C853.804,472.652 887.397,474.36 911.85,512.442C934.641,547.935 950.986,620.226 913.352,655.308C919.781,630.023 906.393,610.773 849.688,577.553C802.617,531.54 796.25,481.148 823.296,405.122Z" style="fill:rgb(140,151,92);"/>
                    </g>
                    <g transform="matrix(2.78047,0,0,2.78047,-1640.07,-492.793)">
                        <path d="M821.66,415.581C821.983,452.07 837.855,477.456 871.109,490.43C860.066,488.389 848.459,483.905 838.1,479.399C842.991,489.01 866.118,506.267 892.135,523.256C874.343,514.428 860.162,507.956 855.188,507.488C878.73,525.765 900.186,543.715 909.877,563.956C896.293,546.873 883.011,532.746 871.109,532.123C892.463,561.565 904.896,586.1 914.91,609.303C901.873,584.117 884.568,558.495 859.928,532.123C858.919,535.246 859.474,542.263 861.279,552.392C855.769,531.263 848.198,513.427 837.135,501.173C836.047,514.753 836.767,531.013 839.748,550.625C832.896,509.692 824.068,467.795 813.913,425.248L821.66,415.581Z" style="fill:rgb(44,86,51);"/>
                    </g>
                    <g transform="matrix(2.78047,0,0,2.78047,-1640.07,-492.793)">
                        <path d="M918.707,238.637C910.179,257.582 899.641,263.212 874.226,282.115C860.218,292.534 824.104,303.926 811.687,308.958C830.671,316.082 858.932,310.99 870.013,299.495C850.666,332.663 811.569,361.065 750,384.044C770.97,385.363 795.807,376.957 824.165,359.697C791.385,381.324 778.609,408.622 767.591,436.419C782.143,408.225 799.389,388.266 820.772,380.965C721.306,450.967 769.434,563.775 884.743,589.231C847.414,571.258 798.621,535.932 811.448,458.587C815.947,431.459 821.601,419.173 823.603,407.86C828.165,427.665 842.352,448.298 866.805,469.815C896.606,490.872 914.792,511.354 921.498,531.269C931.206,498.855 918.484,466.935 884.872,435.473C860.787,409.811 854.993,387.219 853.338,365.322C859.701,398.297 874.502,421.894 902.534,442.868C911.501,449.577 917.804,463.305 926.69,471.948C920.957,460.17 921.842,452.189 907.702,435.425C887.254,411.183 871.919,387.534 866.536,360.116C862.47,338.708 875.804,306.092 897.741,285.053C867.864,323.054 856.932,359.402 883.133,392.562C889.177,369.536 903.97,351.789 918.827,329.607C935.281,288.91 933.913,261.687 918.707,238.637Z" style="fill:rgb(44,86,51);"/>
                    </g>
                    <path d="M581.599,684.274C531.561,789.178 543.011,892.534 611.778,994.446C611.778,994.446 468.172,854.429 581.599,684.274Z" style="fill:rgb(46,46,46);"/>
                    <path d="M707.042,578.262C713.944,634.786 736.155,687.355 782.016,733.814C825.174,779.575 853.537,818.437 874.348,853.779C840.082,812.726 824.891,789.847 777.931,750C727.103,706.872 706.214,635.241 707.042,578.262Z" style="fill:rgb(46,46,46);"/>
                    <g transform="matrix(2.78047,0,0,2.78047,-1640.07,-492.793)">
                        <path d="M919.686,267.924C921.84,287.334 920.761,306.222 911.699,323.824C901.568,343.348 891.475,358.74 881.399,372.358C877.84,354.26 887.45,338.502 906.508,324.29C900.005,326.848 892.944,331.187 884.94,338.543C886.969,324.717 896.481,311.73 909.581,299.237C906.792,299.425 902.982,301.469 897.566,306.43C905.916,294.61 913.316,281.803 919.686,267.924Z" style="fill:rgb(140,151,92);"/>
                    </g>
                </g>
                <g id="dobre" transform="matrix(65.6533,0,0,65.6533,-173206,-49502.4)">
                    <path d="M2573.83,553.8C2573.83,552.1 2573.59,550.842 2573.13,550.025C2572.66,549.209 2571.73,548.8 2570.33,548.8L2569.83,548.8L2569.83,547.3L2583.43,547.3C2590.16,547.3 2595.28,548.725 2598.8,551.575C2602.32,554.425 2604.08,558.434 2604.08,563.6C2604.08,566.9 2603.34,569.809 2601.85,572.325C2600.37,574.842 2598.17,576.8 2595.25,578.2C2592.34,579.6 2588.83,580.3 2584.73,580.3L2573.83,580.3L2573.83,553.8ZM2584.58,578.3C2586.91,578.3 2588.99,577.717 2590.8,576.55C2592.62,575.384 2594.03,573.7 2595.05,571.5C2596.07,569.3 2596.58,566.734 2596.58,563.8C2596.58,560.9 2596.07,558.359 2595.05,556.175C2594.03,553.992 2592.61,552.3 2590.78,551.1C2588.94,549.9 2586.84,549.3 2584.48,549.3L2584.08,549.3C2582.98,549.3 2582.09,549.367 2581.43,549.5L2580.33,549.65L2580.33,577.95L2581.43,578.15C2582.13,578.25 2583.01,578.3 2584.08,578.3L2584.58,578.3Z" style="fill:rgb(241,241,241);fill-rule:nonzero;"/>
                    <path d="M2619.68,580.8C2617.24,580.8 2615.12,580.259 2613.3,579.175C2611.49,578.092 2610.09,576.625 2609.13,574.775C2608.16,572.925 2607.68,570.85 2607.68,568.55C2607.68,566.25 2608.16,564.175 2609.13,562.325C2610.09,560.475 2611.49,559.009 2613.3,557.925C2615.12,556.842 2617.24,556.3 2619.68,556.3C2622.11,556.3 2624.24,556.842 2626.05,557.925C2627.87,559.009 2629.26,560.475 2630.23,562.325C2631.19,564.175 2631.68,566.25 2631.68,568.55C2631.68,570.85 2631.19,572.925 2630.23,574.775C2629.26,576.625 2627.87,578.092 2626.05,579.175C2624.24,580.259 2622.11,580.8 2619.68,580.8ZM2619.68,578.55C2621.38,578.55 2622.68,577.634 2623.58,575.8C2624.48,573.967 2624.93,571.55 2624.93,568.55C2624.93,565.55 2624.48,563.134 2623.58,561.3C2622.68,559.467 2621.38,558.55 2619.68,558.55C2617.98,558.55 2616.68,559.467 2615.78,561.3C2614.88,563.134 2614.43,565.55 2614.43,568.55C2614.43,571.55 2614.88,573.967 2615.78,575.8C2616.68,577.634 2617.98,578.55 2619.68,578.55Z" style="fill:rgb(241,241,241);fill-rule:nonzero;"/>
                    <path d="M2648.48,580.8C2646.68,580.8 2645.21,580.35 2644.08,579.45C2643.51,579.05 2643.06,578.584 2642.73,578.05L2642.48,578.05L2640.73,580.3L2636.48,580.3L2636.48,553.8C2636.48,552.1 2636.24,550.842 2635.78,550.025C2635.31,549.209 2634.38,548.8 2632.98,548.8L2632.48,548.8L2632.48,547.3L2638.48,547.3C2639.68,547.3 2640.59,547.5 2641.23,547.9C2641.86,548.3 2642.31,548.959 2642.58,549.875C2642.84,550.792 2642.98,552.1 2642.98,553.8L2642.98,557.8C2643.41,557.534 2643.88,557.284 2644.38,557.05C2645.74,556.55 2647.03,556.3 2648.23,556.3C2651.69,556.3 2654.35,557.442 2656.2,559.725C2658.05,562.009 2658.98,564.95 2658.98,568.55C2658.98,572.15 2658.07,575.092 2656.25,577.375C2654.43,579.659 2651.84,580.8 2648.48,580.8ZM2647.48,578.55C2649.11,578.55 2650.31,577.65 2651.08,575.85C2651.84,574.05 2652.23,571.617 2652.23,568.55C2652.23,561.884 2650.56,558.55 2647.23,558.55C2646.26,558.55 2645.24,558.8 2644.18,559.3C2643.71,559.567 2643.31,559.817 2642.98,560.05L2642.98,575.3C2643.28,575.967 2643.64,576.517 2644.08,576.95C2645.08,578.017 2646.21,578.55 2647.48,578.55Z" style="fill:rgb(241,241,241);fill-rule:nonzero;"/>
                    <path d="M2679.88,557.3C2680.48,557.734 2680.91,558.209 2681.18,558.725C2681.44,559.242 2681.58,559.517 2681.58,559.55L2679.03,561.5C2678.79,561.2 2678.49,560.884 2678.13,560.55C2677.39,559.884 2676.54,559.55 2675.58,559.55C2673.64,559.55 2672.16,560.067 2671.13,561.1L2671.23,561.85C2671.29,562.45 2671.33,563 2671.33,563.5L2671.33,580.3L2664.83,580.3L2664.83,563.3C2664.83,561.6 2664.6,560.342 2664.15,559.525C2663.7,558.709 2662.78,558.3 2661.38,558.3L2660.88,558.3L2660.88,556.8L2665.83,556.8C2666.96,556.8 2667.85,556.942 2668.5,557.225C2669.15,557.509 2669.66,557.984 2670.03,558.65C2671.83,557.084 2673.93,556.3 2676.33,556.3C2677.76,556.3 2678.94,556.634 2679.88,557.3Z" style="fill:rgb(241,241,241);fill-rule:nonzero;"/>
                    <path d="M2694.63,580.8C2692.33,580.8 2690.31,580.267 2688.58,579.2C2686.84,578.134 2685.5,576.675 2684.55,574.825C2683.6,572.975 2683.13,570.884 2683.13,568.55C2683.13,565.95 2683.6,563.734 2684.55,561.9C2685.5,560.067 2686.81,558.675 2688.48,557.725C2690.14,556.775 2692.03,556.3 2694.13,556.3C2696.19,556.3 2698.06,556.717 2699.73,557.55C2701.39,558.384 2702.71,559.559 2703.68,561.075C2704.64,562.592 2705.13,564.334 2705.13,566.3C2705.13,566.934 2705.09,567.65 2705.03,568.45L2704.93,569.45L2689.88,569.45C2689.88,572.617 2690.36,574.925 2691.33,576.375C2692.29,577.825 2693.64,578.55 2695.38,578.55C2696.98,578.55 2698.32,578.192 2699.4,577.475C2700.49,576.759 2701.53,575.734 2702.53,574.4L2704.08,575.55C2703.11,577.05 2701.9,578.3 2700.45,579.3C2699,580.3 2697.06,580.8 2694.63,580.8ZM2698.38,567.2C2698.38,564.067 2698.01,561.842 2697.28,560.525C2696.54,559.209 2695.49,558.55 2694.13,558.55C2692.86,558.55 2691.84,559.225 2691.05,560.575C2690.27,561.925 2689.88,564.134 2689.88,567.2L2698.38,567.2Z" style="fill:rgb(241,241,241);fill-rule:nonzero;"/>
                </g>
                <g id="miejsce" transform="matrix(65.6533,0,0,65.6533,-163755,-49488.7)">
                    <path d="M2611.43,582.55C2607.83,582.55 2605.24,581.709 2603.65,580.025C2602.07,578.342 2601.28,575.6 2601.28,571.8L2601.28,554.1L2590.33,580.3L2588.68,580.3L2575.28,553.1L2575.28,580.3L2572.78,580.3L2572.78,547.3L2578.88,547.3L2590.98,571.85L2601.23,547.3L2607.78,547.3L2607.78,571.8C2607.78,574.934 2608.04,577.234 2608.58,578.7C2609.11,580.167 2610.06,581.034 2611.43,581.3L2611.43,582.55Z" style="fill:white;fill-rule:nonzero;"/>
                    <path d="M2619.63,554.1C2618.43,554.1 2617.5,553.734 2616.85,553C2616.2,552.267 2615.88,551.367 2615.88,550.3C2615.88,549.434 2616.14,548.75 2616.65,548.25C2617.17,547.75 2617.83,547.5 2618.63,547.5C2619.83,547.5 2620.75,547.867 2621.4,548.6C2622.05,549.334 2622.38,550.234 2622.38,551.3C2622.38,552.167 2622.12,552.85 2621.6,553.35C2621.09,553.85 2620.43,554.1 2619.63,554.1ZM2616.38,563.3C2616.38,561.6 2616.14,560.342 2615.68,559.525C2615.21,558.709 2614.28,558.3 2612.88,558.3L2612.38,558.3L2612.38,556.8L2618.38,556.8C2619.58,556.8 2620.49,557 2621.13,557.4C2621.76,557.8 2622.21,558.459 2622.48,559.375C2622.74,560.292 2622.88,561.6 2622.88,563.3L2622.88,580.3L2616.38,580.3L2616.38,563.3Z" style="fill:white;fill-rule:nonzero;"/>
                    <path d="M2639.13,580.8C2636.83,580.8 2634.81,580.267 2633.08,579.2C2631.34,578.134 2630,576.675 2629.05,574.825C2628.1,572.975 2627.63,570.884 2627.63,568.55C2627.63,565.95 2628.1,563.734 2629.05,561.9C2630,560.067 2631.31,558.675 2632.98,557.725C2634.64,556.775 2636.53,556.3 2638.63,556.3C2640.69,556.3 2642.56,556.717 2644.23,557.55C2645.89,558.384 2647.21,559.559 2648.18,561.075C2649.14,562.592 2649.63,564.334 2649.63,566.3C2649.63,566.934 2649.59,567.65 2649.53,568.45L2649.43,569.45L2634.38,569.45C2634.38,572.617 2634.86,574.925 2635.83,576.375C2636.79,577.825 2638.14,578.55 2639.88,578.55C2641.48,578.55 2642.82,578.192 2643.9,577.475C2644.99,576.759 2646.03,575.734 2647.03,574.4L2648.58,575.55C2647.61,577.05 2646.4,578.3 2644.95,579.3C2643.5,580.3 2641.56,580.8 2639.13,580.8ZM2642.88,567.2C2642.88,564.067 2642.51,561.842 2641.78,560.525C2641.04,559.209 2639.99,558.55 2638.63,558.55C2637.36,558.55 2636.34,559.225 2635.55,560.575C2634.77,561.925 2634.38,564.134 2634.38,567.2L2642.88,567.2Z" style="fill:white;fill-rule:nonzero;"/>
                    <path d="M2658.43,554.1C2657.23,554.1 2656.3,553.734 2655.65,553C2655,552.267 2654.68,551.367 2654.68,550.3C2654.68,549.434 2654.93,548.75 2655.45,548.25C2655.97,547.75 2656.63,547.5 2657.43,547.5C2658.63,547.5 2659.55,547.867 2660.2,548.6C2660.85,549.334 2661.18,550.234 2661.18,551.3C2661.18,552.167 2660.92,552.85 2660.4,553.35C2659.89,553.85 2659.23,554.1 2658.43,554.1ZM2650.78,588.55C2652.34,588.25 2653.47,587.417 2654.15,586.05C2654.84,584.684 2655.18,582.35 2655.18,579.05L2655.18,563.3C2655.18,561.6 2654.94,560.342 2654.48,559.525C2654.01,558.709 2653.08,558.3 2651.68,558.3L2651.18,558.3L2651.18,556.8L2657.18,556.8C2658.38,556.8 2659.29,557 2659.93,557.4C2660.56,557.8 2661.01,558.459 2661.28,559.375C2661.54,560.292 2661.68,561.6 2661.68,563.3L2661.68,579.05C2661.68,581.85 2661.34,584.017 2660.65,585.55C2659.97,587.084 2658.85,588.175 2657.3,588.825C2655.75,589.475 2653.58,589.8 2650.78,589.8L2650.78,588.55Z" style="fill:white;fill-rule:nonzero;"/>
                    <path d="M2676.03,580.8C2672.13,580.8 2669.44,580.117 2667.98,578.75C2667.44,578.25 2667.11,577.542 2666.98,576.625C2666.84,575.709 2666.78,574.434 2666.78,572.8L2668.53,572.8C2668.83,574.534 2669.51,575.925 2670.58,576.975C2671.64,578.025 2673.13,578.55 2675.03,578.55C2678.36,578.55 2680.03,577.417 2680.03,575.15C2680.03,574.284 2679.67,573.567 2678.95,573C2678.24,572.434 2677.09,571.8 2675.53,571.1L2672.93,570C2670.79,569.067 2669.19,568.05 2668.13,566.95C2667.06,565.85 2666.53,564.517 2666.53,562.95C2666.53,560.85 2667.4,559.217 2669.15,558.05C2670.9,556.884 2673.19,556.3 2676.03,556.3C2679.93,556.3 2682.61,556.984 2684.08,558.35C2684.61,558.85 2684.94,559.55 2685.08,560.45C2685.21,561.35 2685.28,562.634 2685.28,564.3L2683.53,564.3C2683.23,562.567 2682.54,561.175 2681.48,560.125C2680.41,559.075 2678.93,558.55 2677.03,558.55C2675.59,558.55 2674.53,558.859 2673.83,559.475C2673.13,560.092 2672.78,560.917 2672.78,561.95C2672.78,562.784 2673.07,563.475 2673.65,564.025C2674.24,564.575 2675.13,565.117 2676.33,565.65L2679.33,566.9C2681.79,567.934 2683.57,568.975 2684.65,570.025C2685.74,571.075 2686.28,572.45 2686.28,574.15C2686.28,576.284 2685.34,577.925 2683.45,579.075C2681.57,580.225 2679.09,580.8 2676.03,580.8Z" style="fill:white;fill-rule:nonzero;"/>
                    <path d="M2701.78,580.8C2699.21,580.8 2697.03,580.25 2695.23,579.15C2693.43,578.05 2692.07,576.575 2691.15,574.725C2690.24,572.875 2689.78,570.817 2689.78,568.55C2689.78,566.284 2690.24,564.225 2691.15,562.375C2692.07,560.525 2693.43,559.05 2695.23,557.95C2697.03,556.85 2699.21,556.3 2701.78,556.3C2705.78,556.3 2708.36,556.884 2709.53,558.05C2710.09,558.617 2710.44,559.367 2710.58,560.3C2710.71,561.234 2710.78,562.817 2710.78,565.05L2709.28,565.05C2709.14,562.95 2708.49,561.342 2707.33,560.225C2706.16,559.109 2704.56,558.55 2702.53,558.55C2700.69,558.55 2699.24,559.392 2698.15,561.075C2697.07,562.759 2696.53,565.25 2696.53,568.55C2696.53,575.217 2698.61,578.55 2702.78,578.55C2704.38,578.55 2705.72,578.192 2706.8,577.475C2707.89,576.759 2708.93,575.734 2709.93,574.4L2711.48,575.55C2710.51,577.05 2709.29,578.3 2707.83,579.3C2706.36,580.3 2704.34,580.8 2701.78,580.8Z" style="fill:white;fill-rule:nonzero;"/>
                    <path d="M2726.13,580.8C2723.83,580.8 2721.81,580.267 2720.08,579.2C2718.34,578.134 2717,576.675 2716.05,574.825C2715.1,572.975 2714.63,570.884 2714.63,568.55C2714.63,565.95 2715.1,563.734 2716.05,561.9C2717,560.067 2718.31,558.675 2719.98,557.725C2721.64,556.775 2723.53,556.3 2725.63,556.3C2727.69,556.3 2729.56,556.717 2731.23,557.55C2732.89,558.384 2734.21,559.559 2735.18,561.075C2736.14,562.592 2736.63,564.334 2736.63,566.3C2736.63,566.934 2736.59,567.65 2736.53,568.45L2736.43,569.45L2721.38,569.45C2721.38,572.617 2721.86,574.925 2722.83,576.375C2723.79,577.825 2725.14,578.55 2726.88,578.55C2728.48,578.55 2729.82,578.192 2730.9,577.475C2731.99,576.759 2733.03,575.734 2734.03,574.4L2735.58,575.55C2734.61,577.05 2733.4,578.3 2731.95,579.3C2730.5,580.3 2728.56,580.8 2726.13,580.8ZM2729.88,567.2C2729.88,564.067 2729.51,561.842 2728.78,560.525C2728.04,559.209 2726.99,558.55 2725.63,558.55C2724.36,558.55 2723.34,559.225 2722.55,560.575C2721.77,561.925 2721.38,564.134 2721.38,567.2L2729.88,567.2Z" style="fill:white;fill-rule:nonzero;"/>
                </g>
            </g>
        </g>
    </g>
</svg>
