<?xml version="1.0" encoding="UTF-8" standalone="no"?>
<!DOCTYPE svg PUBLIC "-//W3C//DTD SVG 1.1//EN" "http://www.w3.org/Graphics/SVG/1.1/DTD/svg11.dtd">
<svg width="100%" height="100%" viewBox="0 0 797 757" version="1.1" xmlns="http://www.w3.org/2000/svg" xmlns:xlink="http://www.w3.org/1999/xlink" xml:space="preserve" xmlns:serif="http://www.serif.com/" style="fill-rule:evenodd;clip-rule:evenodd;stroke-linejoin:round;stroke-miterlimit:2;">
    <g transform="matrix(1,0,0,1,-1432,-869)">
        <g id="person" transform="matrix(1.00961,0,0,1.00961,-21.5661,-7.39239)">
            <g transform="matrix(1.08574,0,0,1.08574,-1294.73,573.55)">
                <path d="M3222.54,546.384C3219.78,548.65 3217.32,550.673 3217.03,550.921C3217.03,550.921 3189.35,575.327 3189.35,575.327C3168.08,594.738 3126.3,625.75 3095.81,654.957C3079.8,670.297 3066.88,685.278 3060.84,697.849C3060.01,699.598 3059.59,705.407 3061.3,712.955C3064.25,725.933 3071.1,747.159 3072.32,751.381C3077.71,769.829 3082.31,788.346 3086.58,806.923C3093.03,834.999 3098.7,863.202 3104.88,891.56C3105.64,895.022 3108.31,908.39 3110.42,921.709C3111.79,930.326 3112.94,938.913 3113.14,944.692C3109.5,942.671 3105.44,940.261 3104.99,940.019C3104.99,940.019 3065.8,919.399 3065.8,919.399C3024.68,897.708 2989.39,872.404 2949.68,851.906C2933.03,843.31 2915.62,835.568 2896.68,829.277C2915.31,836.272 2932.36,844.663 2948.63,853.856C2987.59,875.866 3021.98,902.462 3062.34,925.69L3100.73,947.606C3101.4,947.993 3109.84,953.404 3113.36,955.236C3116.95,957.101 3119.76,955.34 3120.18,954.936C3121.65,953.515 3122.94,947.462 3122.47,939.101C3121.53,922.45 3117.01,894.606 3116.03,889.3C3110.68,860.715 3105.89,832.288 3100.2,803.988C3096.39,785.016 3092.15,766.116 3087.16,747.254C3085.92,742.575 3078.07,716.398 3076.51,705.158C3076.45,704.765 3076.41,704.288 3076.38,703.884C3082.2,693.057 3093.89,680.629 3107.81,667.651C3138.6,638.937 3180.47,608.326 3201.87,589.179L3229.06,564.944C3229.61,564.471 3237.86,557.563 3241.12,554.769C3247.63,549.198 3243.93,541.247 3243.85,541.136C3239.22,535.063 3231.06,529.768 3221.09,525.737C3203.44,518.6 3180.03,514.788 3167.17,512.761C3146,509.465 3124.7,506.363 3103.35,503.561C3082.01,500.761 3060.65,498.257 3039.35,495.959C3027.17,494.673 3010.72,495.553 2996.43,493.353C2990.58,492.454 2985.12,491.077 2980.62,488.599C2971.66,483.667 2964.26,476.05 2958.07,467.258C2948.47,453.637 2941.69,437.273 2936.78,423.025C2933.75,414.241 2931.11,405.35 2928.65,396.401C2922.85,375.337 2918.02,354.008 2911.35,333.191C2908.61,324.715 2905.37,316.418 2901.86,308.215C2896.62,295.971 2890.81,283.959 2885.29,271.891C2890.2,284.203 2895.4,296.477 2900.03,308.946C2903.11,317.233 2905.93,325.595 2908.24,334.112C2913.98,355.161 2917.86,376.639 2922.71,397.895C2924.81,407.085 2927.09,416.224 2929.77,425.272C2934.28,440.437 2940.67,457.903 2950.16,472.598C2956.86,482.981 2965.14,491.927 2975.22,497.98C2980.66,501.248 2987.29,503.332 2994.46,504.71C3008.83,507.47 3025.47,507.211 3037.74,508.959C3058.85,511.917 3080.02,515.147 3101.17,518.541C3122.31,521.935 3143.41,525.496 3164.38,529.312C3174.72,531.182 3192.42,534.445 3207.6,539.782C3213.14,541.729 3218.38,543.846 3222.54,546.384Z" style="fill:rgb(140,151,92);"/>
            </g>
            <g transform="matrix(1.08574,0,0,1.08574,-1301.16,-106.998)">
                <path d="M2813.87,1337.13C2819.8,1342.1 2823.99,1346.77 2829.01,1351.39C2834.09,1356.05 2838.42,1360.43 2842.91,1364.66C2846.57,1368.12 2850.21,1371.32 2853.59,1374.69C2858.91,1380.01 2863.92,1385.28 2868.35,1391.47C2877.69,1404.55 2885.35,1419.57 2892.64,1438.64C2890.9,1419.78 2888.44,1403.94 2883.31,1389.69C2879.23,1378.35 2873.7,1368.28 2865.9,1359.43C2863.34,1356.53 2860.43,1353.83 2857.22,1351.41C2854.16,1349.11 2850.89,1347.01 2847.27,1345.25C2843.17,1343.26 2839.04,1341.53 2834.29,1340.28C2827.72,1338.56 2821.51,1337.87 2813.87,1337.13Z" style="fill:rgb(140,151,92);"/>
            </g>
            <g transform="matrix(1.08574,0,0,1.08574,-1301.16,-106.998)">
                <path d="M2977.83,1333.35C2971.39,1334.48 2965.98,1335.49 2960.16,1337.29C2956.13,1338.54 2952.57,1340.03 2948.92,1341.78C2944.2,1344.05 2939.91,1346.63 2935.9,1349.64C2931.76,1352.74 2928.06,1356.3 2924.77,1360.11C2916.74,1369.41 2910.81,1379.94 2906.19,1391.39C2899.96,1406.82 2896.65,1423.62 2894.89,1442.79C2901.97,1423.39 2910.64,1407.53 2921.25,1393.34C2926.11,1386.84 2931.57,1381.12 2937.22,1375.29C2940.86,1371.53 2944.71,1367.93 2948.48,1364.08C2953.18,1359.27 2957.65,1354.36 2962.68,1349.2C2967.78,1343.98 2972.01,1338.78 2977.83,1333.35Z" style="fill:rgb(140,151,92);"/>
            </g>
            <g transform="matrix(1.08574,0,0,1.08574,-1294.73,573.55)">
                <path d="M2668.28,948.161C2666.67,942.494 2666.03,936.229 2665.93,929.814C2665.72,916.617 2667.95,902.796 2669.89,891.729C2673.41,871.282 2677.48,850.697 2682.07,830.222C2686.65,809.782 2691.75,789.467 2697.44,769.546C2701.35,755.768 2710.5,737.509 2713.4,720.54C2714.97,711.345 2714.74,702.478 2711.89,694.567C2706.47,679.518 2693.63,662.595 2677.16,645.686C2645.84,613.537 2601.41,580.848 2577.54,558.817C2571.99,553.776 2566.5,548.651 2561.11,543.43C2555.74,538.234 2550.46,532.948 2545.33,527.53L2545.16,527.391C2550.19,525.925 2555.3,524.813 2560.46,523.953C2569.89,522.383 2579.46,521.602 2588.97,520.993C2626.19,518.477 2664.85,518.516 2702.8,514.698C2728.55,512.107 2753.96,507.751 2778.4,499.866C2783.31,498.278 2789.38,492.705 2795.04,484.991C2804.62,471.936 2814.02,453.1 2817.73,445.152C2822.73,434.424 2827.25,423.515 2831.44,412.469C2848.1,368.638 2859.84,322.911 2878.56,279.844C2857.82,321.926 2843.88,366.975 2825.22,409.939C2820.59,420.61 2815.67,431.143 2810.28,441.471C2806.88,447.974 2798.99,462.19 2790.59,473.798C2785.13,481.348 2779.78,487.99 2775.2,489.274C2751.31,495.98 2726.6,499.125 2701.64,500.763C2663.71,503.253 2625.22,502.152 2588.06,503.51C2577.93,503.915 2567.74,504.521 2557.68,505.949C2550.74,506.935 2543.87,508.332 2537.12,510.298C2535.47,510.779 2527.35,512.967 2524.39,514.75C2521.02,516.78 2519.76,519.59 2519.29,521.477C2518.9,523.048 2518.66,526.719 2521.56,530.655C2523.72,533.58 2530.37,539.711 2531.25,540.673C2536.49,546.377 2541.89,551.955 2547.4,557.421C2552.88,562.86 2558.47,568.184 2564.12,573.431C2587.93,595.18 2632.06,627.562 2663.53,659.12C2678.04,673.678 2689.94,687.849 2694.9,700.868C2697.55,707.785 2696.64,715.879 2694.71,724.143C2691.32,738.672 2684.6,753.626 2681.61,765.269C2676.41,785.631 2671.78,806.372 2667.75,827.236C2663.73,848.067 2660.3,869.005 2657.4,889.78C2655.78,901.554 2654.01,916.255 2654.74,930.197C2655.27,940.164 2657.04,949.748 2660.89,957.744C2661.83,959.696 2663.19,960.573 2664.58,960.932C2665.73,961.228 2667.07,961.265 2668.5,960.615C2669.66,960.082 2671.44,957.887 2672.69,957.116L2683.87,950.683L2719.25,933.431C2743.56,922.146 2766.51,909.391 2788.89,895.796C2822.41,875.425 2854.62,853.241 2888.34,831.72C2853.78,851.786 2820.68,872.521 2786.39,891.504C2763.7,904.067 2740.52,915.857 2716.02,926.097L2679.46,942.271L2668.28,948.161ZM2538.29,522.56C2538.53,520.272 2538.43,517.903 2536.75,519.204C2535.8,519.937 2536.73,521.217 2538.29,522.56Z" style="fill:rgb(140,151,92);"/>
            </g>
            <g transform="matrix(1.08574,0,0,1.08574,-1032.19,-1089.95)">
                <path d="M2769.93,2206.95C2790.25,2144.02 2781.91,2123.19 2751.16,2067.43C2729,2027.24 2757.96,1971.86 2717.03,1939.24C2675.41,1906.09 2587.45,1921.77 2554.61,1962.2C2526.66,1996.61 2535.57,2033.61 2531.65,2073.53C2526.22,2128.68 2481.03,2161.93 2524.92,2218.59C2531.83,2227.51 2540.06,2235.03 2549.14,2241.67" style="fill:white;"/>
            </g>
            <g transform="matrix(1.08574,0,0,1.08574,-1032.19,-1089.95)">
                <path d="M2769.93,2206.95C2781.42,2175.65 2785.22,2154.65 2782.62,2134.32C2779.98,2113.69 2770.68,2093.85 2755.95,2064.79C2741.37,2036.47 2752.41,2001.42 2746.16,1971.55C2743.11,1956.94 2736.33,1943.54 2722.65,1932.18C2700.13,1913.88 2664.82,1908.02 2630.69,1913.4C2597.12,1918.69 2565.13,1934.74 2547.78,1956.65C2536.09,1971.67 2530.49,1986.92 2528.01,2002.65C2524.47,2025.12 2527.43,2048.41 2525.65,2072.94C2523.34,2107.1 2505.48,2133.27 2503.21,2161.42C2501.78,2179.21 2506.15,2197.76 2524.01,2219.29C2527.67,2223.66 2531.65,2227.63 2535.87,2231.35C2540.07,2235.04 2544.49,2238.48 2549.14,2241.67C2544.71,2238.22 2540.48,2234.57 2536.56,2230.61C2532.67,2226.68 2529.1,2222.44 2525.84,2217.88C2510.37,2196.47 2507.15,2178.81 2509.57,2162.14C2513.68,2133.86 2533.19,2108.48 2537.64,2074.12C2540.62,2050.21 2538.91,2027.27 2543.41,2005.45C2546.09,1992.43 2551.17,1979.86 2561.44,1967.75C2576.78,1949.32 2604.93,1937.41 2633.74,1932.94C2662.41,1928.5 2692.2,1931.3 2711.4,1946.3C2722.05,1954.44 2727.39,1964.4 2730.22,1975.29C2738.12,2005.58 2729.79,2041.92 2746.38,2070.07C2762.53,2097.1 2772.85,2115.58 2776.87,2135.28C2780.88,2154.89 2778.7,2175.59 2769.93,2206.95Z" style="fill:rgb(140,151,92);"/>
            </g>
            <g transform="matrix(1.08574,0,0,1.08574,-1301.16,-106.998)">
                <path d="M2851.88,1274.01C2847.17,1283 2841.95,1290 2836.57,1296.97C2831.09,1304.07 2825.24,1309.85 2818.8,1315.22C2813.8,1319.38 2808.46,1323.06 2802.61,1326.48C2794.33,1331.31 2785.28,1335.87 2774.57,1339.14C2758.03,1344.77 2739.66,1347.6 2723.46,1354.6C2712.35,1359.4 2702.41,1365.91 2694.81,1376.36C2703.86,1367.98 2714.35,1363.77 2725.62,1361.19C2742.76,1357.27 2761.23,1357.42 2778.42,1354.7C2791.17,1352.28 2802.56,1348.94 2812.3,1343.6C2819.69,1339.55 2826.24,1334.53 2831.62,1328.5C2838.23,1321.1 2843.51,1312.59 2846.93,1302.54C2849.91,1293.79 2851.2,1284.63 2851.88,1274.01Z" style="fill:rgb(140,151,92);"/>
            </g>
            <g transform="matrix(1.08574,0,0,1.08574,-1301.16,-106.998)">
                <path d="M2934.97,1277.41C2934.75,1286.66 2934.45,1295.7 2936.1,1304.96C2937.27,1311.52 2939.78,1317.5 2942.93,1323.4C2946.41,1329.13 2950.98,1334.26 2956.55,1338.68C2961.48,1342.59 2967.2,1345.88 2973.31,1348.56C2990.45,1356.06 3010.51,1359.14 3026.05,1362.54C3039.24,1365.06 3053.98,1366.35 3066.91,1371.18C3075.56,1374.42 3083.25,1379.1 3089.01,1386.94C3084.65,1377.67 3077.61,1371.29 3069.29,1366.26C3057.17,1358.93 3042.49,1354.97 3029.62,1350.02C3015.41,1345 2997.51,1338.66 2981.64,1330.75C2976.77,1328.32 2972.07,1325.83 2967.75,1323.05C2963.39,1320.24 2959.2,1317.54 2955.99,1313.86C2951.17,1309.01 2947.63,1303.49 2944.45,1297.45C2940.92,1290.74 2937.84,1284.28 2934.97,1277.41Z" style="fill:rgb(140,151,92);"/>
            </g>
            <g transform="matrix(1.08574,0,0,1.08574,-1032.19,-1089.95)">
                <path d="M2561.21,2057.09C2560.36,2082.14 2559.37,2107.59 2563.43,2132.45C2574.28,2198.84 2647.28,2221.49 2700.47,2182.48C2731.5,2159.72 2735.06,2121.33 2733.89,2086C2733.67,2079.2 2735.05,2068.95 2732.97,2062.45C2732.81,2061.96 2731.99,2062.13 2731.5,2061.97C2723.03,2059.11 2714.8,2055.17 2708,2049.27C2700.83,2043.06 2693.89,2035.05 2690.87,2025.87C2690.82,2025.71 2690.4,2023.9 2690.3,2023.87C2689.43,2023.56 2684.95,2026.77 2684.14,2027.22C2675.91,2031.79 2667.73,2036.07 2659.14,2039.99C2632.87,2051.98 2603.88,2063.44 2574.73,2065.27" style="fill:white;"/>
            </g>
            <g transform="matrix(1.08574,0,0,1.08574,-1032.19,-1089.95)">
                <path d="M2688.69,2027.34C2690.22,2031.98 2692.7,2036.35 2695.68,2040.37C2698.74,2044.51 2702.35,2048.26 2706.03,2051.55C2709.56,2054.71 2713.48,2057.36 2717.62,2059.62C2721.49,2061.73 2725.55,2063.48 2729.68,2064.97L2730.03,2086.13C2730.49,2106.8 2729.26,2128.51 2721.68,2147.32C2716.83,2159.36 2709.35,2170.23 2697.72,2178.72C2672.74,2197.47 2643,2201.72 2617.93,2193.73C2592.14,2185.5 2571.25,2164.36 2565.32,2132.14C2563.47,2122.29 2562.44,2112.35 2561.85,2102.35C2560.96,2087.28 2561.1,2072.12 2561.21,2057.09C2560.3,2072.13 2559.32,2087.29 2559.45,2102.43C2559.53,2112.58 2560.14,2122.7 2561.53,2132.76C2566.5,2167.52 2588.22,2191.05 2615.58,2200.72C2642.73,2210.32 2675.45,2206.14 2703.23,2186.23C2716.32,2176.58 2724.86,2164.34 2730.16,2150.68C2737.91,2130.7 2738.72,2107.7 2737.76,2085.88C2737.53,2081.19 2738.03,2074.87 2737.66,2069.27C2737.46,2066.39 2737.06,2063.68 2736.28,2061.39L2732.61,2058.69C2728.51,2057.39 2724.47,2055.83 2720.63,2053.9C2716.84,2051.99 2713.24,2049.73 2709.97,2047C2706.48,2044.07 2703.03,2040.72 2700.08,2037C2697.19,2033.35 2694.76,2029.37 2693.27,2025.08L2691.14,2021.52C2690.64,2021.35 2689.8,2021.24 2688.76,2021.63C2687.12,2022.26 2683.7,2024.72 2682.98,2025.13L2658.4,2038.35C2642.85,2045.84 2626.35,2053.18 2609.37,2058.35C2597.98,2061.82 2586.38,2064.31 2574.73,2065.27C2586.46,2064.76 2598.18,2062.69 2609.74,2059.67C2627.03,2055.16 2643.94,2048.5 2659.89,2041.62L2685.3,2029.3L2688.69,2027.34Z" style="fill:rgb(140,151,92);"/>
            </g>
        </g>
    </g>
</svg>
