<?xml version="1.0" encoding="UTF-8" standalone="no"?>
<!DOCTYPE svg PUBLIC "-//W3C//DTD SVG 1.1//EN" "http://www.w3.org/Graphics/SVG/1.1/DTD/svg11.dtd">
<svg width="100%" height="100%" viewBox="0 0 793 778" version="1.1" xmlns="http://www.w3.org/2000/svg" xmlns:xlink="http://www.w3.org/1999/xlink" xml:space="preserve" xmlns:serif="http://www.serif.com/" style="fill-rule:evenodd;clip-rule:evenodd;stroke-linejoin:round;stroke-miterlimit:2;">
    <g transform="matrix(1,0,0,1,-2469,-848)">
        <g id="spa" transform="matrix(0.991113,0,0,0.991113,21.9511,7.54519)">
            <g transform="matrix(1,0,0,1,930.892,26.8453)">
                <path d="M1929.78,1082.6C1931.86,1078.09 1933.63,1074.89 1935.46,1070.27C1936.58,1067.44 1937.41,1064.98 1938.19,1062.04C1939.12,1058.59 1939.89,1055.29 1940.29,1051.75C1940.68,1048.33 1940.73,1044.88 1940.55,1041.45C1940.11,1033.08 1938.66,1025.01 1937.33,1016.74C1935.29,1004.07 1932.62,992.253 1930.26,979.644C1927.65,992.217 1924.85,1004.01 1922.7,1016.68C1921.3,1024.95 1919.79,1033.01 1919.3,1041.38C1919.1,1044.81 1919.13,1048.27 1919.5,1051.68C1919.88,1055.23 1920.63,1058.53 1921.53,1061.98C1922.29,1064.92 1923.11,1067.39 1924.21,1070.22C1926,1074.86 1927.74,1078.07 1929.78,1082.6Z" style="fill:rgb(140,151,92);"/>
            </g>
            <g transform="matrix(1,0,0,1,930.892,26.8453)">
                <path d="M1939.26,1039.53C1945.49,1037.28 1951.33,1034.97 1957.31,1032.14C1963.31,1029.29 1968.86,1026.07 1974.55,1022.65C1983.16,1016.92 1989.52,1011.19 1994.24,1005.33C1998.76,999.716 2001.49,993.887 2003.09,988.153C2006.1,977.397 2004.79,966.561 2000.38,955.92C1993.44,939.177 1978.27,922.586 1963.23,903.628C1945.74,881.579 1928.31,856.464 1925.81,822.127C1922.8,857.823 1936.23,886.769 1951.25,911.904C1962.75,931.151 1974.98,947.764 1980.61,963.583C1982.41,968.642 1983.5,973.532 1983.34,978.552C1983.19,983.209 1982.2,987.937 1979.7,992.992C1976.73,999.01 1972.6,1005.53 1965.98,1012.47C1961.82,1017.28 1957.61,1021.72 1953.13,1026.23C1948.54,1030.86 1944.16,1035.22 1939.26,1039.53Z" style="fill:rgb(140,151,92);"/>
            </g>
            <g transform="matrix(1,0,0,1,930.892,26.8453)">
                <path d="M1923.46,1037.26C1917.5,1033.17 1912.28,1028.83 1906.98,1024.05C1901.9,1019.47 1897.3,1014.73 1892.91,1009.34C1885.32,1001.07 1880.34,992.966 1876.48,985.373C1872.2,976.936 1870.28,968.977 1870.67,960.774C1871.42,944.866 1879.82,928.487 1895.46,910.604C1903.34,901.228 1909.82,890.443 1914.69,877.25C1920.23,862.273 1923.82,844.534 1925.8,822.787C1920.48,843.427 1914.21,859.923 1906.62,873.537C1900.48,884.553 1893.45,893.354 1885.23,900.633C1863.77,920.39 1851.35,939.884 1849.55,959.355C1848.64,969.286 1850.43,979.344 1855.27,989.112C1858.24,995.079 1862.31,1001 1867.75,1006.68C1872.13,1011.24 1877.28,1015.59 1883.31,1019.95C1889.63,1024.13 1895.88,1027.81 1902.76,1030.7C1909.53,1033.53 1916.23,1035.55 1923.46,1037.26Z" style="fill:rgb(140,151,92);"/>
            </g>
            <g transform="matrix(1,0,0,1,930.892,26.8453)">
                <path d="M1692.32,1531.74C1691.94,1519.37 1692.68,1507.99 1693.44,1496.59C1694.22,1484.71 1695.59,1473.61 1697.4,1462.82C1698.9,1453.82 1700.83,1445.27 1703.03,1437.01C1706.51,1423.94 1710.83,1411.76 1717.08,1400.77C1727.81,1381.9 1742.9,1366.29 1763.39,1354.96C1781.57,1344.9 1803.29,1337.89 1829.17,1334.81C1796.05,1333.83 1768.25,1339.77 1745.58,1351.49C1727.19,1361.01 1712.31,1374.31 1700.99,1390.64C1692.64,1402.69 1686.08,1416.41 1682.24,1431.61C1679.88,1440.93 1678.56,1450.81 1678.38,1461.07C1678.17,1472.8 1679.19,1484.89 1681.78,1497.4C1684.15,1508.82 1687.86,1519.91 1692.32,1531.74Z" style="fill:rgb(140,151,92);"/>
            </g>
            <g transform="matrix(1,0,0,1,930.892,26.8453)">
                <path d="M1695.83,1528.67C1708.18,1529.3 1719.33,1529.04 1730.2,1527.2C1742.48,1525.12 1753.54,1521.31 1763.71,1516.37C1772.57,1512.07 1780.56,1506.73 1787.61,1500.67C1798.79,1491.07 1807.63,1479.63 1814.73,1467.68C1824.66,1451 1831,1433.06 1834.45,1415.48C1840.68,1383.76 1837.56,1353.75 1829.17,1334.81C1833.59,1351.33 1832.9,1374.88 1826.29,1399.87C1821.16,1419.25 1812.08,1439.09 1798.86,1457.22C1791.72,1467.02 1783.14,1475.97 1773.51,1484.48C1767.46,1489.82 1761.09,1495.01 1754.07,1499.89C1745.67,1505.71 1736.78,1511.16 1726.64,1516.07C1717.05,1520.72 1707.28,1525.19 1695.83,1528.67Z" style="fill:rgb(140,151,92);"/>
            </g>
            <g transform="matrix(1,0,0,1,930.892,26.8453)">
                <path d="M1691.73,1528.67C1683.66,1524.78 1675.23,1519.92 1666.24,1514.7C1660.01,1511.09 1653.94,1507.36 1647.87,1503.67C1641.58,1499.85 1635.55,1496.2 1630.22,1492.46C1624.92,1489.04 1620.16,1485.09 1615.51,1481.13C1610.75,1477.1 1606.26,1472.9 1602.08,1468.45C1588.98,1454.51 1579.1,1438.32 1573.4,1420.57C1563.55,1389.9 1565.05,1355.88 1581.13,1325.34C1559.5,1354.88 1552.62,1390.65 1558.94,1424.23C1562.92,1445.34 1572.18,1465.51 1586.31,1482.43C1590.93,1487.97 1596.16,1493.13 1601.96,1497.69C1607.6,1502.13 1613.82,1505.92 1620.38,1509.35C1630.72,1514.05 1642.73,1518.97 1655.38,1522.32C1668.06,1525.67 1680.56,1527.44 1691.73,1528.67Z" style="fill:rgb(140,151,92);"/>
            </g>
            <g transform="matrix(1,0,0,1,930.892,26.8453)">
                <path d="M1707.21,1405.56C1705.46,1398.89 1703.79,1393.16 1701.1,1386.94C1699.32,1382.81 1697.28,1379.16 1694.9,1375.39C1691.94,1370.71 1688.64,1366.42 1684.85,1362.43C1681.09,1358.46 1676.87,1354.93 1672.38,1351.82C1661.74,1344.43 1649.88,1339 1637.31,1334.87C1619.68,1329.07 1601.09,1326.43 1581.23,1326.2C1601.7,1331.91 1619.65,1340.61 1636.27,1351.31C1643.74,1356.12 1650.53,1361.54 1657.39,1366.97C1661.92,1370.55 1666.3,1374.29 1670.86,1377.81C1676.76,1382.37 1682.62,1386.51 1688.57,1391.12C1694.99,1396.09 1701.05,1400.01 1707.21,1405.56Z" style="fill:rgb(140,151,92);"/>
            </g>
            <g transform="matrix(1,0,0,1,930.892,26.8453)">
                <path d="M1640.78,1349.88C1639.33,1342.75 1640.58,1336.58 1641.99,1329.21C1643.15,1323.14 1645.46,1317.45 1647.71,1311.16C1649.37,1306.51 1651,1301.72 1652.95,1296.96C1655.91,1289.72 1659,1282.48 1663.07,1275.79C1673.65,1258.36 1687.56,1244.38 1703.13,1240.87C1687.25,1239.91 1669.81,1248.2 1654.88,1261.69C1645.82,1269.88 1637.93,1279.91 1632.55,1290.93C1630.69,1294.74 1629.24,1298.74 1628.28,1302.76C1627.26,1307.01 1626.63,1311.23 1626.65,1315.44C1626.68,1320.87 1627.1,1325.93 1628.74,1330.82C1631.32,1338.55 1634.99,1344.46 1640.78,1349.88Z" style="fill:rgb(140,151,92);"/>
            </g>
            <g transform="matrix(1,0,0,1,930.892,26.8453)">
                <path d="M1762.73,1349.88C1766.54,1344.36 1769.43,1339.51 1771.7,1333.39C1774,1327.21 1774.96,1321.07 1775.25,1314.6C1775.49,1309.41 1774.91,1304.25 1773.68,1299.25C1771.83,1291.7 1768.37,1284.65 1764.21,1278.18C1760.03,1271.7 1755.13,1265.86 1749.33,1260.83C1736.61,1249.81 1721.14,1242.56 1703.13,1240.87C1720.66,1247.92 1733.22,1260.49 1742.02,1275.72C1745.77,1282.21 1748.24,1289.22 1750.57,1296.42C1752.08,1301.06 1753.25,1305.81 1754.55,1310.57C1756.25,1316.77 1758.11,1322.65 1759.37,1329.08C1760.78,1336.25 1762.46,1342.36 1762.73,1349.88Z" style="fill:rgb(140,151,92);"/>
            </g>
            <g transform="matrix(1,0,0,1,930.892,26.8453)">
                <path d="M1768.82,1111.87C1774.02,1110.22 1783.3,1108.5 1795.44,1106.29C1828.11,1100.34 1880.31,1092.56 1932.64,1085.31C1995.52,1076.61 2058.42,1068.32 2087.97,1065.54C2095.01,1064.88 2100.09,1064.48 2102.73,1064.49C2104.77,1068.21 2105.73,1076.09 2106.53,1086.24C2108.83,1115.38 2107.62,1161.84 2109.68,1190.37C2109.39,1161.67 2113.54,1115.25 2113.02,1085.93C2112.78,1072.12 2111.06,1061.91 2108.14,1058.15C2107.78,1057.69 2106.1,1056.46 2102.74,1056.28C2099.02,1056.08 2091.22,1056.22 2080.36,1056.73C2035.44,1058.85 1937.32,1066.17 1861.12,1075.28C1818.92,1080.32 1783.41,1086.09 1766.96,1090.56C1757.49,1093.13 1752.54,1097.14 1751.32,1099.13C1750.15,1101.08 1748.51,1107.77 1748.24,1116.89C1747.73,1134.46 1749.09,1163.72 1749.16,1169.26C1749.63,1185.84 1750.32,1199.4 1751.46,1211.64C1754.44,1243.62 1759.1,1266.06 1761.71,1309.32C1763.03,1292.86 1763.79,1279.43 1764.04,1267.19C1764.69,1235.27 1762.97,1212.51 1766.07,1169.55L1768.82,1111.87ZM1767.83,1112.2L1767.01,1112.51C1766.82,1112.59 1766.43,1112.57 1766.51,1112.71C1766.88,1113.4 1767.37,1112.93 1767.83,1112.2Z" style="fill:rgb(140,151,92);"/>
            </g>
            <g transform="matrix(1,0,0,1,930.892,26.8453)">
                <path d="M2144.63,1219.29C2126.71,1217.36 2108.72,1216.33 2090.76,1214.93C2076.13,1213.8 2055.4,1210.13 2041.97,1218.49C2019.78,1232.32 2024.22,1262.78 2047.51,1272.58C2069.32,1281.76 2094.17,1275.01 2116.66,1272.54C2126.15,1271.49 2135.67,1270.63 2145.2,1269.96C2177.52,1267.69 2262.53,1270.32 2247.9,1213.18C2246.02,1205.86 2243.19,1198.72 2239.72,1192.02C2217.5,1149.03 2169.84,1157.02 2129.26,1160.83C2069.82,1166.41 1941.41,1158.35 1967.36,1256.95C1970.44,1268.67 1976.06,1279.78 1982.9,1289.73C2014.84,1336.16 2062.68,1328.82 2112.34,1325.6C2141.82,1323.69 2171.33,1322.31 2200.89,1322.8C2233.25,1323.34 2277.91,1324.92 2302.37,1299.47C2314.15,1287.22 2316.46,1270.16 2316.44,1253.79C2316.34,1174.51 2248.05,1161.93 2183.68,1162.32" style="fill:white;"/>
            </g>
            <g transform="matrix(1,0,0,1,930.892,26.8453)">
                <path d="M2231.46,1164.54C2223.85,1158.11 2215.2,1153.82 2205.9,1151.06C2182.27,1144.07 2153.92,1147.8 2128.27,1150.25C2092.14,1153.93 2031.16,1153.27 1993.14,1172.87C1964.09,1187.85 1946.48,1213.42 1959.03,1259.15C1960.78,1265.51 1963.2,1271.71 1966.16,1277.65C1969.06,1283.49 1972.44,1289.08 1976.16,1294.36C1990.24,1314.31 2006.91,1325.03 2025.32,1330.39C2051.74,1338.08 2081.89,1334.38 2112.75,1331.97C2127.42,1330.82 2142.1,1329.81 2156.79,1329.08C2171.45,1328.36 2186.11,1327.93 2200.81,1327.97C2220.4,1328.01 2244.42,1328.32 2265.83,1323.06C2280.9,1319.36 2294.69,1312.95 2304.95,1301.95C2309.94,1296.6 2313.32,1290.47 2315.52,1283.89C2318.7,1274.39 2319.46,1263.96 2319.29,1253.79C2318.78,1221.8 2307.63,1200.55 2290.24,1186.62C2274.63,1174.12 2253.93,1167.6 2231.46,1164.54ZM2233.57,1166.41C2239.47,1171.84 2244.69,1178.67 2249.04,1187.2C2250.92,1190.89 2252.64,1194.69 2254.12,1198.59C2255.61,1202.53 2256.88,1206.55 2257.87,1210.62C2265.05,1240.17 2251.68,1257.04 2230.17,1266.52C2204.53,1277.82 2165.64,1277.09 2145.77,1278.14L2117.49,1280.08C2103.8,1281.24 2089.23,1283.95 2075.03,1283.8C2064.77,1283.69 2054.71,1282.2 2045.26,1277.92C2031.91,1271.8 2024.08,1259.99 2022.99,1247.67C2021.92,1235.54 2027.08,1222.88 2040.03,1215.37C2046.04,1211.88 2053.25,1210.42 2060.8,1210.23C2071.16,1209.96 2082.11,1211.91 2090.92,1212.9L2144.63,1219.29L2090.61,1216.96C2081.98,1216.59 2071.21,1215.42 2061.16,1216.34C2054.82,1216.92 2048.8,1218.37 2043.92,1221.62C2034.56,1227.86 2031.02,1237.48 2032.39,1246.54C2033.73,1255.34 2039.9,1263.45 2049.75,1267.25C2057.82,1270.38 2066.28,1271.04 2074.82,1270.69C2088.61,1270.12 2102.61,1266.78 2115.83,1265L2144.62,1261.78C2162.9,1260.17 2198.82,1260.13 2222.14,1249.02C2234.68,1243.05 2242.59,1233.07 2237.92,1215.73C2237.05,1212.48 2235.95,1209.28 2234.7,1206.14C2233.43,1202.96 2231.98,1199.85 2230.4,1196.83C2222.98,1182.64 2212.22,1175.26 2199.84,1171.64C2178.65,1165.44 2153.26,1169.28 2130.25,1171.41C2095.96,1174.36 2038.11,1172.02 2001.74,1189.92C1979.65,1200.8 1966.96,1220.13 1975.68,1254.76C1977.03,1260.11 1978.93,1265.33 1981.28,1270.35C1983.69,1275.49 1986.52,1280.42 1989.65,1285.09C2000.94,1301.93 2014.53,1311.19 2029.69,1316.03C2054.38,1323.89 2082.84,1320.74 2111.92,1319.24C2126.74,1318.48 2141.56,1317.84 2156.38,1317.52C2171.24,1317.2 2186.1,1317.18 2200.98,1317.63C2219.91,1318.23 2243.11,1319.31 2263.94,1314.85C2277.61,1311.91 2290.25,1306.62 2299.79,1296.99C2305.36,1291.36 2308.72,1284.58 2310.73,1277.3C2312.82,1269.76 2313.48,1261.7 2313.59,1253.79C2314,1223.48 2304.06,1203.03 2288,1189.34C2273.64,1177.09 2254.51,1170.17 2233.57,1166.41Z" style="fill:rgb(140,151,92);"/>
            </g>
            <g transform="matrix(1,0,0,1,930.892,26.8453)">
                <path d="M2309.23,1482.46C2309.75,1489.04 2309.42,1510.4 2308.49,1520.34C2279.66,1521.53 2182.1,1524.12 2091.7,1526.33C2057.71,1527.16 2024.74,1527.68 1996.82,1528.59C1983.72,1529.01 1971.76,1529.62 1961.32,1530.12C1945.6,1530.87 1933.43,1531.57 1926.09,1531.55C1924.61,1531.54 1923.13,1531.49 1922.05,1531.45C1921.54,1528.75 1921.08,1524.17 1920.54,1518.88C1919.01,1503.86 1917.49,1483.96 1916.95,1479.31C1916.57,1484.62 1913.56,1509.5 1912.73,1524.72C1912.36,1531.38 1912.8,1536.37 1913.35,1537.92C1913.7,1538.86 1914.72,1540.15 1916.95,1541.11C1918.24,1541.67 1921.09,1542.25 1925.35,1542.8C1932.81,1543.76 1945.27,1544.79 1961.37,1545.45C1971.89,1545.88 1983.94,1546.2 1997.12,1546.17C2025.12,1546.12 2058.17,1544.92 2092.23,1543.69C2188.51,1540.18 2292.84,1534.26 2313.9,1532.74C2315.62,1532.61 2317.98,1531.95 2319.46,1529C2319.95,1528.02 2320.6,1525.7 2320.86,1522.39C2321.88,1509.8 2320.21,1477.55 2319.08,1475.41C2318.59,1474.47 2317.64,1473.14 2315.58,1472.3C2314.18,1471.73 2311.15,1471.1 2306.64,1470.72C2293.86,1469.64 2266.79,1469.42 2232.31,1469.79C2124.3,1470.95 1943.23,1477.61 1904.17,1478.24C1934.39,1478.61 2049.65,1477.86 2150.3,1478.29C2213.41,1478.56 2270.74,1479.29 2297.61,1481.16C2302.16,1481.48 2306.77,1482.1 2309.23,1482.46Z" style="fill:rgb(140,151,92);"/>
            </g>
            <g transform="matrix(1,0,0,1,930.892,26.8453)">
                <path d="M1539.02,1534.84C1552.87,1535.42 1566.18,1536.83 1579.88,1537.88C1593.48,1538.92 1606.88,1539.94 1620.49,1540.7C1629.53,1541.2 1638.57,1541.51 1647.66,1541.59C1656.74,1541.67 1665.84,1541.3 1674.96,1541.04C1694.71,1539.75 1714.45,1538.52 1734.2,1536.88C1780.29,1533.04 1826.08,1528.19 1872.16,1525C1839.17,1523.27 1806.3,1521.9 1773.21,1521.21C1740.24,1520.53 1707.34,1520.54 1674.41,1519.92C1663.12,1520.25 1651.86,1520.12 1640.64,1520.59C1629.26,1521.06 1617.97,1521.91 1606.66,1523.01C1597.51,1523.9 1588.52,1525 1579.43,1526.45C1565.76,1528.63 1552.6,1531.56 1539.02,1534.84Z" style="fill:rgb(140,151,92);"/>
            </g>
            <g transform="matrix(1,0,0,1,930.892,26.8453)">
                <path d="M1580.35,1536.61C1581.59,1541.99 1586.12,1563.38 1591.52,1579.07C1594.57,1587.94 1598.3,1594.88 1601.4,1597.18C1605.83,1600.43 1622.36,1603.15 1644.71,1604.39C1657.27,1605.09 1671.69,1605.49 1686.74,1605.31C1703.34,1605.11 1720.68,1604.44 1736.99,1603.17C1773.55,1600.3 1804.9,1595.29 1812.39,1593.05C1820.91,1590.36 1826.01,1584.38 1828.93,1576.29C1834.14,1561.82 1832.43,1540.97 1838.19,1527.8C1830.95,1539.89 1830.01,1560.36 1823.2,1573.82C1820.42,1579.32 1816.55,1583.43 1810.27,1584.63C1802.23,1586.32 1767,1587.04 1727.8,1588.39C1716.86,1588.76 1705.63,1589.36 1694.59,1589.94C1676.81,1590.87 1659.56,1591.86 1644.86,1592.29C1624.86,1592.88 1609.89,1593.19 1605.65,1590.72C1602.98,1589.17 1599.95,1583.66 1596.68,1576.94C1589.49,1562.15 1582.25,1541.74 1580.35,1536.61Z" style="fill:rgb(140,151,92);"/>
            </g>
            <g transform="matrix(1,0,0,1,930.892,26.8453)">
                <path d="M2107.43,1583.62C2107.15,1583.65 2104.29,1584.01 2101.53,1584.13C2089.84,1584.66 2065.37,1584.01 2034.96,1583.27C2021.11,1582.93 2006.06,1582.5 1990.43,1582.34C1980.7,1582.24 1970.75,1582.24 1960.74,1582.41C1935.46,1582.84 1909.88,1583.69 1886.46,1584.66C1856.1,1585.91 1829.59,1587.69 1812.13,1588.62C1835.64,1590.15 1875.65,1593.38 1919.08,1595.51C1930.83,1596.08 1942.8,1596.5 1954.76,1596.75C1966.78,1597 1978.77,1597.14 1990.44,1596.98C2022.46,1596.53 2052.08,1594.97 2073.77,1593.58C2095.63,1592.18 2109.73,1589.96 2111.17,1588.56C2117.06,1582.75 2119.4,1573.94 2119.56,1564.26C2119.78,1551.39 2116.46,1537.14 2115.01,1527.8C2115.48,1537.1 2117.27,1551.4 2115.78,1564C2114.84,1571.96 2112.61,1579.19 2107.43,1583.62Z" style="fill:rgb(140,151,92);"/>
            </g>
            <g transform="matrix(1,0,0,1,930.892,26.8453)">
                <path d="M2291.49,1585.44C2291.09,1585.57 2289.64,1586.01 2288.55,1586.26C2282.27,1587.64 2271.9,1587.62 2261.49,1587.39C2252.72,1587.2 2243.93,1586.86 2237.52,1585.84C2235.57,1585.53 2232.85,1585.6 2231.66,1585.2C2231.51,1584.77 2231.32,1584.01 2231.13,1584.38L2231.13,1584.39L2231.61,1585.18L2231.66,1585.2C2231.69,1585.28 2231.72,1585.36 2231.75,1585.4L2231.61,1585.18C2231.15,1585.02 2230.94,1584.77 2231.13,1584.39C2227.67,1578.74 2225.12,1573.21 2222.87,1567.7C2216.8,1552.88 2213.25,1538.47 2204.77,1522.63C2210.16,1539.85 2210.52,1554.81 2214.15,1570.47C2215.72,1577.23 2218.03,1583.96 2221.27,1591.05C2222.29,1593.18 2225.63,1595.84 2231.23,1597.49C2238.23,1599.57 2249.8,1601.08 2261.36,1601.08C2273.06,1601.08 2284.69,1599.53 2291.56,1597.28C2297.26,1595.41 2300.41,1592.43 2301.09,1589.87C2302.89,1582.84 2303.88,1575.64 2304.27,1568.03C2305.03,1553.1 2303.88,1536.98 2305.32,1518.44C2300.99,1536.46 2299.39,1552.46 2296.51,1567.07C2295.24,1573.51 2293.72,1579.6 2291.49,1585.44Z" style="fill:rgb(140,151,92);"/>
            </g>
            <g transform="matrix(1,0,0,0.655411,659.379,571.439)">
                <path d="M2292.34,1581.98C2292.39,1582.02 2292.43,1582.1 2292.47,1582.24C2292.58,1582.65 2292.37,1582.84 2291.99,1582.89L2291.31,1584.6C2291.39,1584.33 2291.48,1584.06 2291.56,1583.79L2291.81,1582.93L2291.83,1582.93L2291.99,1582.89L2292.16,1582.48L2292.34,1581.98C2292.18,1581.85 2291.99,1582.34 2291.81,1582.93C2291.01,1583.01 2289.64,1582.75 2288.58,1582.89C2280.09,1584.07 2264.97,1582.14 2251.79,1581.24C2242.98,1580.64 2230.68,1585.16 2230.86,1580.04C2227.82,1575.33 2225.49,1570.75 2223.43,1566.07C2217.08,1551.59 2213.53,1537.72 2204.77,1522.63C2210.15,1541.27 2210.26,1556.51 2213.94,1573.2C2215.52,1580.36 2217.92,1587.3 2221.18,1594.92C2222.23,1597.25 2225.92,1600.78 2231.94,1602.79C2238.87,1605.1 2250.11,1606.88 2261.31,1606.53C2275.07,1606.09 2288.63,1602.57 2294.59,1599.07C2298.24,1596.93 2300.25,1594.14 2300.82,1591.85C2302.66,1584.37 2303.72,1576.92 2304.13,1568.98C2304.93,1553.68 2303.82,1537.53 2305.32,1518.44C2300.99,1536.32 2299.5,1552.23 2296.56,1566.77C2295.48,1572.14 2294.15,1577.16 2292.34,1581.98ZM2230.86,1580.04L2231.84,1581.54C2231.6,1581.17 2231.07,1578.48 2230.9,1579.59L2230.86,1580.04Z" style="fill:rgb(140,151,92);"/>
            </g>
            <g transform="matrix(1,0,0,1,930.892,26.8453)">
                <path d="M1814.02,1156.06C1812.49,1166.41 1810.32,1177.72 1809.08,1189.97C1808.33,1197.37 1807.76,1204.96 1807.77,1212.59C1807.79,1220.23 1808.51,1227.81 1809.16,1235.23C1810.24,1247.45 1811.88,1258.84 1813.03,1269.21C1814.46,1258.87 1816.32,1247.51 1817.61,1235.3C1818.39,1227.89 1819.22,1220.32 1819.35,1212.68C1819.48,1205.05 1819.01,1197.45 1818.37,1190.04C1817.32,1177.77 1815.33,1166.44 1814.02,1156.06Z" style="fill:rgb(140,151,92);"/>
            </g>
            <g transform="matrix(1,0,0,1,930.892,26.8453)">
                <path d="M1813.53,1286.6C1812.44,1288.26 1811.09,1290.34 1809.72,1294.2C1808.88,1296.55 1808.13,1299 1807.88,1301.89C1807.75,1303.38 1807.9,1304.92 1808.14,1306.42C1808.39,1308 1808.84,1309.42 1809.32,1310.89C1811.3,1317.07 1813.42,1321.62 1814.02,1324.29C1815.08,1322.08 1816.63,1318.28 1817.99,1312.84C1818.6,1310.38 1819.34,1307.92 1819.39,1305.22C1819.44,1302.64 1819.02,1300.07 1818.34,1297.76C1816.7,1292.22 1814.21,1289.03 1813.53,1286.6Z" style="fill:rgb(140,151,92);"/>
            </g>
            <g transform="matrix(1,0,0,1,930.892,26.8453)">
                <path d="M2127.86,1372.78C2108.51,1371.59 2027.82,1369.87 2010.29,1378.54C1980.89,1393.08 1992.82,1429.81 2027.83,1431.01C2042.27,1431.5 2161.76,1442.37 2208.22,1405.56C2228.45,1389.53 2216.48,1359.02 2210.9,1348.94C2192.03,1314.84 2138.99,1309.26 2104.33,1309.58C2031.25,1310.24 1906.63,1297.29 1911.12,1406.32C1911.7,1420.25 1920.37,1449.75 1942.42,1461.41C2006.27,1495.17 2269.31,1467.81 2308.25,1453.95C2349.57,1439.25 2343.88,1348.53 2281.87,1334.81C2246.51,1326.98 2217.1,1318.77 2178.63,1321.68" style="fill:white;"/>
            </g>
            <g transform="matrix(1,0,0,1,930.892,26.8453)">
                <path d="M2199.5,1320.85C2193.14,1316.36 2186.02,1312.69 2178.4,1309.76C2154.58,1300.56 2125.98,1298.56 2104.23,1298.81C2059.37,1299.55 1995.61,1295.85 1952.67,1316.32C1921.4,1331.23 1899.95,1357.96 1902.42,1406.68C1902.86,1415.18 1905.95,1428.9 1912.83,1441.63C1918.67,1452.46 1927.16,1462.56 1938.68,1468.5C1965.13,1482.09 2024.34,1485.79 2088.38,1483.66C2182.04,1480.54 2286.08,1465.89 2309.43,1457.25C2332.99,1448.51 2342.43,1416.63 2334.94,1386.83C2328.79,1362.34 2311.48,1339.45 2282.19,1333.38C2260.51,1328.9 2241.06,1324.24 2220.43,1322.08C2213.62,1321.37 2206.68,1320.92 2199.5,1320.85ZM2200.37,1321.47C2208.57,1327.42 2215.45,1334.77 2220.36,1343.71C2224.51,1351.33 2231.61,1368.89 2229.85,1385.4C2228.74,1395.91 2224.4,1406.04 2214.6,1413.61C2196.69,1427.41 2169.12,1435.17 2140.1,1438.56C2090.47,1444.35 2037.01,1438.38 2027.59,1437.85C2007.98,1436.63 1994.84,1426.02 1990.2,1413.57C1985.03,1399.67 1989.65,1383.08 2008.34,1374.6C2016.14,1371.05 2035.5,1369.48 2056.84,1369.46C2085.07,1369.42 2116.68,1371.64 2127.86,1372.78C2115.07,1372.49 2075.65,1373.1 2045.34,1376.09C2030.43,1377.56 2017.83,1379.48 2012.24,1382.48C1999.99,1389.06 1996.74,1400.07 2000.81,1409.25C2004.56,1417.71 2014.37,1424.08 2028.06,1424.16C2037.25,1424.28 2089.49,1427.53 2137.62,1420.18C2162.66,1416.36 2186.65,1409.89 2201.84,1397.51C2207.99,1392.53 2209.24,1385.44 2208.88,1378.7C2208.35,1368.57 2204.04,1358.8 2201.44,1354.18C2194.96,1342.54 2183.51,1335.18 2170.52,1330.18C2149.29,1321.99 2123.81,1320.21 2104.43,1320.34C2062.01,1320.41 2001.74,1315.16 1960.83,1333.82C1935.54,1345.36 1918.58,1366.83 1919.82,1405.96C1920.03,1412.72 1922.38,1423.63 1927.62,1433.85C1931.78,1441.96 1937.72,1449.75 1946.17,1454.33C1970.99,1467.82 2027.25,1471.58 2088.11,1471.03C2180.68,1470.19 2283.81,1458.6 2307.08,1450.65C2328.29,1443.42 2336.07,1414.71 2330.1,1387.98C2324.9,1364.7 2309.07,1342.71 2281.55,1336.24C2260.07,1331.16 2240.8,1325.98 2220.3,1323.25C2213.81,1322.38 2207.21,1321.76 2200.37,1321.47Z" style="fill:rgb(140,151,92);"/>
            </g>
        </g>
    </g>
</svg>
